<svg viewBox="0 0 166 193" fill="none" xmlns="http://www.w3.org/2000/svg">
<path d="M142.352 47.7385C115.32 20.8163 74.966 20.8163 47.9337 47.7385C20.9014 74.6607 20.9014 118.296 47.9337 145.218C74.966 172.141 115.32 172.141 142.352 145.218C147.759 139.834 156.539 139.834 161.945 145.218C167.352 150.603 167.352 159.347 161.945 164.732C124.1 202.423 66.2292 202.423 28.3839 164.732C-9.46131 127.041 -9.46131 65.9594 28.3839 28.2683C66.2292 -9.42278 124.1 -9.42278 161.945 28.2683C167.352 33.6528 167.352 42.3971 161.945 47.7815C156.539 53.166 147.759 53.166 142.352 47.7815V47.7385Z" fill="#A855F7"/>
<path d="M123.676 67.2431C107.536 51.0897 83.4409 51.0897 67.3002 67.2431C51.1596 83.3964 51.1596 109.578 67.3002 125.731C83.4409 141.884 107.536 141.884 123.676 125.731C126.904 122.5 132.147 122.5 135.375 125.731C138.603 128.962 138.603 134.208 135.375 137.439C112.778 160.054 78.2242 160.054 55.6273 137.439C33.0304 114.824 33.0304 78.1757 55.6273 55.561C78.2242 32.9463 112.778 32.9463 135.375 55.561C138.603 58.7917 138.603 64.0383 135.375 67.2689C132.147 70.4996 126.904 70.4996 123.676 67.2689V67.2431Z" fill="#EC4899"/>
</svg>
