<svg width="150" height="20" viewBox="0 0 150 20" fill="none" xmlns="http://www.w3.org/2000/svg">
<path d="M0 9.82587C0 7.93593 0.422026 6.24782 1.26608 4.76156C2.12848 3.25694 3.29364 2.09178 4.76156 1.26608C6.24782 0.422026 7.9084 0 9.7433 0C11.8901 0 13.7709 0.550469 15.3856 1.65141C17.0003 2.75235 18.1288 4.27531 18.771 6.2203H14.3397C13.8993 5.30285 13.2755 4.61476 12.4681 4.15604C11.6791 3.69732 10.7617 3.46795 9.71578 3.46795C8.59649 3.46795 7.59647 3.73401 6.71572 4.26613C5.85332 4.7799 5.17441 5.51386 4.67899 6.46801C4.20191 7.42216 3.96338 8.54144 3.96338 9.82587C3.96338 11.0919 4.20191 12.2112 4.67899 13.1837C5.17441 14.1379 5.85332 14.881 6.71572 15.4131C7.59647 15.9269 8.59649 16.1838 9.71578 16.1838C10.7617 16.1838 11.6791 15.9544 12.4681 15.4957C13.2755 15.0186 13.8993 14.3214 14.3397 13.4039H18.771C18.1288 15.3673 17.0003 16.8994 15.3856 18.0003C13.7892 19.0829 11.9085 19.6242 9.7433 19.6242C7.9084 19.6242 6.24782 19.2114 4.76156 18.3857C3.29364 17.5416 2.12848 16.3765 1.26608 14.8902C0.422026 13.4039 0 11.7158 0 9.82587Z" fill="url(#paint0_linear_22_308)"/>
<path d="M37.4478 0.247711V19.4591H33.5945V11.2846H25.365V19.4591H21.5117V0.247711H25.365V8.14694H33.5945V0.247711H37.4478Z" fill="url(#paint1_linear_22_308)"/>
<path d="M52.47 15.7985H44.8185L43.5524 19.4591H39.5065L46.4149 0.220186H50.9012L57.8096 19.4591H53.7361L52.47 15.7985ZM51.4241 12.7158L48.6443 4.67899L45.8644 12.7158H51.4241Z" fill="url(#paint2_linear_22_308)"/>
<path d="M63.6946 3.35786V8.17446H70.1626V11.2296H63.6946V16.3214H70.9883V19.4591H59.8413V0.220186H70.9883V3.35786H63.6946Z" fill="url(#paint3_linear_22_308)"/>
<path d="M79.0116 9.82587C79.0116 7.93593 79.4337 6.24782 80.2777 4.76156C81.1401 3.25694 82.3053 2.09178 83.7732 1.26608C85.2595 0.422026 86.9201 0 88.7549 0C90.9018 0 92.7825 0.550469 94.3973 1.65141C96.012 2.75235 97.1404 4.27531 97.7826 6.2203H93.3514C92.911 5.30285 92.2871 4.61476 91.4798 4.15604C90.6908 3.69732 89.7733 3.46795 88.7274 3.46795C87.6081 3.46795 86.6081 3.73401 85.7274 4.26613C84.865 4.7799 84.1861 5.51386 83.6906 6.46801C83.2136 7.42216 82.975 8.54144 82.975 9.82587C82.975 11.0919 83.2136 12.2112 83.6906 13.1837C84.1861 14.1379 84.865 14.881 85.7274 15.4131C86.6081 15.9269 87.6081 16.1838 88.7274 16.1838C89.7733 16.1838 90.6908 15.9544 91.4798 15.4957C92.2871 15.0186 92.911 14.3214 93.3514 13.4039H97.7826C97.1404 15.3673 96.012 16.8994 94.3973 18.0003C92.8009 19.0829 90.9201 19.6242 88.7549 19.6242C86.9201 19.6242 85.2595 19.2114 83.7732 18.3857C82.3053 17.5416 81.1401 16.3765 80.2777 14.8902C79.4337 13.4039 79.0116 11.7158 79.0116 9.82587Z" fill="url(#paint4_linear_22_308)"/>
<path d="M116.459 0.247711V19.4591H112.606V11.2846H104.377V19.4591H100.523V0.247711H104.377V8.14694H112.606V0.247711H116.459Z" fill="url(#paint5_linear_22_308)"/>
<path d="M131.482 15.7985H123.83L122.564 19.4591H118.518L125.427 0.220186H129.913L136.821 19.4591H132.748L131.482 15.7985ZM130.436 12.7158L127.656 4.67899L124.876 12.7158H130.436Z" fill="url(#paint6_linear_22_308)"/>
<path d="M142.706 3.35786V8.17446H149.174V11.2296H142.706V16.3214H150V19.4591H138.853V0.220186H150V3.35786H142.706Z" fill="url(#paint7_linear_22_308)"/>
<defs>
<linearGradient id="paint0_linear_22_308" x1="-0.963327" y1="-11.1225" x2="150.451" y2="42.477" gradientUnits="userSpaceOnUse">
<stop stop-color="#6366F1"/>
<stop offset="1" stop-color="#EC4899"/>
</linearGradient>
<linearGradient id="paint1_linear_22_308" x1="-0.963327" y1="-11.1225" x2="150.451" y2="42.477" gradientUnits="userSpaceOnUse">
<stop stop-color="#6366F1"/>
<stop offset="1" stop-color="#EC4899"/>
</linearGradient>
<linearGradient id="paint2_linear_22_308" x1="-0.963327" y1="-11.1225" x2="150.451" y2="42.477" gradientUnits="userSpaceOnUse">
<stop stop-color="#6366F1"/>
<stop offset="1" stop-color="#EC4899"/>
</linearGradient>
<linearGradient id="paint3_linear_22_308" x1="-0.963327" y1="-11.1225" x2="150.451" y2="42.477" gradientUnits="userSpaceOnUse">
<stop stop-color="#6366F1"/>
<stop offset="1" stop-color="#EC4899"/>
</linearGradient>
<linearGradient id="paint4_linear_22_308" x1="-0.963327" y1="-11.1225" x2="150.451" y2="42.477" gradientUnits="userSpaceOnUse">
<stop stop-color="#6366F1"/>
<stop offset="1" stop-color="#EC4899"/>
</linearGradient>
<linearGradient id="paint5_linear_22_308" x1="-0.963327" y1="-11.1225" x2="150.451" y2="42.477" gradientUnits="userSpaceOnUse">
<stop stop-color="#6366F1"/>
<stop offset="1" stop-color="#EC4899"/>
</linearGradient>
<linearGradient id="paint6_linear_22_308" x1="-0.963327" y1="-11.1225" x2="150.451" y2="42.477" gradientUnits="userSpaceOnUse">
<stop stop-color="#6366F1"/>
<stop offset="1" stop-color="#EC4899"/>
</linearGradient>
<linearGradient id="paint7_linear_22_308" x1="-0.963327" y1="-11.1225" x2="150.451" y2="42.477" gradientUnits="userSpaceOnUse">
<stop stop-color="#6366F1"/>
<stop offset="1" stop-color="#EC4899"/>
</linearGradient>
</defs>
</svg>
