<?xml version="1.0" standalone="no"?>
<!DOCTYPE svg PUBLIC "-//W3C//DTD SVG 20010904//EN"
 "http://www.w3.org/TR/2001/REC-SVG-20010904/DTD/svg10.dtd">
<svg version="1.0" xmlns="http://www.w3.org/2000/svg"
 width="512.000000pt" height="512.000000pt" viewBox="0 0 512.000000 512.000000"
 preserveAspectRatio="xMidYMid meet">

<g transform="translate(0.000000,512.000000) scale(0.100000,-0.100000)"
fill="#000000" stroke="none">
<path d="M2435 5049 c-51 -12 -63 -18 -890 -457 -379 -201 -706 -378 -726
-393 -80 -63 -124 -202 -96 -305 l13 -51 -120 -5 c-91 -4 -135 -11 -178 -27
-76 -29 -159 -105 -195 -179 l-28 -57 -5 -1395 -5 -1395 -80 -3 c-119 -4 -125
-13 -125 -162 0 -147 11 -207 55 -296 46 -93 128 -172 232 -222 l78 -37 2165
-3 c1451 -2 2181 1 2213 8 82 17 158 61 228 130 112 110 149 212 149 411 0
102 -2 119 -20 142 -19 24 -28 26 -103 29 l-82 3 -5 1395 -5 1395 -28 56 c-30
62 -103 136 -163 167 -53 27 -140 42 -244 42 l-87 0 14 53 c27 99 -8 220 -84
292 -24 24 -218 132 -546 306 -528 280 -554 291 -590 251 -22 -25 -22 -85 1
-104 9 -8 238 -131 507 -273 518 -273 557 -299 570 -368 8 -42 -14 -114 -43
-140 -20 -18 -977 -527 -989 -526 -5 0 -129 140 -278 310 -367 421 -346 399
-383 399 -42 0 -72 -31 -72 -73 0 -29 36 -74 296 -371 163 -186 292 -341 288
-346 -5 -4 -94 -53 -199 -108 -222 -117 -277 -134 -377 -113 -50 10 -215 93
-818 413 -415 220 -763 406 -772 415 -10 8 -25 35 -34 59 -22 57 -12 106 29
150 23 24 245 147 752 416 396 210 747 392 779 406 50 20 72 23 142 20 80 -3
86 -5 237 -82 147 -75 156 -78 183 -65 35 17 52 59 38 95 -7 20 -37 42 -119
87 -183 99 -215 110 -335 113 -58 2 -123 -1 -145 -7z m-1361 -1456 l184 -98
-330 -5 -330 -5 -19 -24 c-18 -23 -19 -57 -19 -1226 0 -1169 1 -1203 19 -1226
19 -24 20 -24 249 -24 212 0 232 1 251 19 27 25 28 79 1 106 -18 18 -33 20
-195 20 l-175 0 0 1105 0 1105 335 0 335 0 0 -175 c0 -218 14 -296 77 -425 39
-80 59 -108 132 -180 121 -120 253 -184 506 -246 320 -78 722 -69 1018 22 14
5 17 -1 17 -37 0 -36 -15 -69 -87 -194 -76 -132 -87 -157 -91 -208 -5 -70 15
-130 60 -176 56 -57 82 -66 193 -66 88 0 105 3 143 25 48 27 98 96 108 147 15
79 1 122 -89 278 l-87 151 1 69 0 70 82 39 c65 31 99 57 168 125 73 72 94 101
132 181 63 129 77 207 77 425 l0 175 335 0 335 0 0 -1105 0 -1105 -1558 0
c-1550 0 -1559 0 -1577 -20 -25 -28 -23 -76 4 -103 l22 -22 1610 0 1611 0 19
24 c18 23 19 57 19 1226 0 1169 -1 1203 -19 1226 l-19 24 -330 5 -330 5 184
98 184 97 166 0 c91 0 185 -5 208 -11 56 -14 114 -62 137 -113 18 -39 19 -100
19 -1413 l0 -1373 -2200 0 -2200 0 0 1373 c0 1319 1 1374 19 1413 22 48 75 94
128 111 22 7 109 12 211 12 l172 1 184 -97z m836 -443 c429 -228 470 -248 548
-266 81 -19 173 -14 258 15 32 11 136 61 229 110 94 50 173 91 178 91 4 0 6
-136 5 -302 l-3 -302 -80 -23 c-141 -39 -256 -55 -435 -60 -195 -6 -332 9
-503 52 -318 81 -470 195 -549 411 -18 51 -22 86 -26 267 l-4 209 33 -18 c19
-9 176 -92 349 -184z m1677 -35 c-3 -152 -7 -189 -26 -239 -43 -119 -116 -214
-216 -281 -30 -19 -56 -35 -59 -35 -3 0 -6 141 -6 313 l0 313 153 81 152 81 3
-26 c2 -15 2 -108 -1 -207z m-328 -1124 c59 -102 64 -139 25 -170 -19 -15 -41
-21 -79 -21 -66 0 -105 27 -105 72 0 25 92 208 105 208 2 0 26 -40 54 -89z
m-1313 -1378 c32 -102 99 -184 188 -231 l51 -27 375 0 375 0 53 28 c87 46 154
129 186 230 5 16 57 17 902 17 l897 0 -5 -88 c-4 -69 -11 -100 -34 -146 -35
-72 -107 -138 -180 -165 -55 -21 -61 -21 -2194 -21 -2133 0 -2139 0 -2194 21
-73 27 -145 93 -180 165 -23 46 -30 77 -34 146 l-5 88 897 0 c845 0 897 -1
902 -17z m1074 9 c0 -18 -76 -96 -107 -108 -25 -11 -104 -14 -354 -14 -359 0
-360 0 -424 71 -19 22 -35 44 -35 49 0 7 161 10 460 10 253 0 460 -4 460 -8z"/>
<path d="M955 1775 c-14 -13 -25 -36 -25 -50 0 -14 11 -37 25 -50 l24 -25 531
0 c517 0 531 1 550 20 30 30 27 83 -6 109 -26 21 -36 21 -551 21 l-524 0 -24
-25z"/>
<path d="M951 1454 c-12 -15 -21 -33 -21 -40 0 -27 24 -63 49 -74 18 -7 259
-10 794 -8 l769 3 19 24 c25 30 24 76 -1 101 -20 20 -33 20 -804 20 l-785 0
-20 -26z"/>
</g>
</svg>
