<svg viewBox="0 0 500 500" xmlns="http://www.w3.org/2000/svg">
<path d="M309.188 351.396H112.792C109.026 351.396 105.974 348.344 105.974 344.578C105.974 340.812 109.026 337.76 112.792 337.76H309.188C312.955 337.76 316.007 340.812 316.007 344.578C316.007 348.344 312.922 351.396 309.188 351.396ZM43.3117 232.857C39.5455 232.857 36.4935 229.805 36.4935 226.039V98.8961C36.4935 85.5519 47.3702 74.6753 60.7143 74.6753H404.968C418.312 74.6753 429.188 85.5519 429.188 98.8961V176.493C429.188 180.26 426.136 183.312 422.37 183.312C418.604 183.312 415.552 180.26 415.552 176.493V98.8961C415.552 93.0519 410.812 88.3117 404.968 88.3117H60.7143C54.8702 88.3117 50.1299 93.0519 50.1299 98.8961V226.039C50.1299 229.805 47.0779 232.857 43.3117 232.857ZM309.188 293.312H112.792C109.026 293.312 105.974 290.26 105.974 286.493C105.974 282.727 109.026 279.675 112.792 279.675H309.188C312.955 279.675 316.007 282.727 316.007 286.493C316.007 290.26 312.922 293.312 309.188 293.312Z" fill="black"/>
<path d="M232.825 323.929C237.469 323.929 241.234 320.164 241.234 315.519C241.234 310.875 237.469 307.11 232.825 307.11C228.18 307.11 224.416 310.875 224.416 315.519C224.416 320.164 228.18 323.929 232.825 323.929Z" fill="black"/>
<path d="M204.903 388.604C201.136 388.604 198.084 385.552 198.084 381.786V344.578C198.084 340.812 201.136 337.76 204.903 337.76C208.669 337.76 211.721 340.812 211.721 344.578V381.786C211.721 385.552 208.669 388.604 204.903 388.604ZM260.779 388.604C257.013 388.604 253.961 385.552 253.961 381.786V344.578C253.961 340.812 257.013 337.76 260.779 337.76C264.546 337.76 267.597 340.812 267.597 344.578V381.786C267.597 385.552 264.546 388.604 260.779 388.604Z" fill="black"/>
<path d="M315.682 425.422H134.708C130.941 425.422 127.89 422.37 127.89 418.604V414.253C127.89 393.701 144.61 376.98 165.162 376.98H300.552C304.156 376.98 307.727 377.5 311.136 378.506C314.74 379.578 316.818 383.377 315.747 386.98C314.675 390.584 310.877 392.662 307.273 391.591C305.097 390.942 302.857 390.617 300.552 390.617H165.162C152.954 390.617 142.89 399.903 141.656 411.786H315.682C319.448 411.786 322.5 414.838 322.5 418.604C322.5 422.37 319.448 425.422 315.682 425.422Z" fill="black"/>
<path d="M107.63 425.422H13.6039C6.98055 425.422 1.62341 420.032 1.62341 413.441V231.201C1.62341 224.578 7.01302 219.221 13.6039 219.221H107.597C114.221 219.221 119.578 224.61 119.578 231.201V413.409C119.61 420.065 114.221 425.422 107.63 425.422ZM15.2598 411.786H105.974V232.857H15.2598V411.786Z" fill="black"/>
<path d="M112.792 260.942H8.44159C4.67536 260.942 1.62341 257.89 1.62341 254.123C1.62341 250.357 4.67536 247.305 8.44159 247.305H112.792C116.558 247.305 119.61 250.357 119.61 254.123C119.61 257.89 116.558 260.942 112.792 260.942ZM112.792 397.338H8.44159C4.67536 397.338 1.62341 394.286 1.62341 390.519C1.62341 386.753 4.67536 383.701 8.44159 383.701H112.792C116.558 383.701 119.61 386.753 119.61 390.519C119.61 394.286 116.558 397.338 112.792 397.338Z" fill="black"/>
<path d="M485.065 425.422H315.682C308.344 425.422 302.37 419.448 302.37 412.11V183.019C302.37 175.682 308.344 169.708 315.682 169.708H485.065C492.403 169.708 498.377 175.682 498.377 183.019V412.11C498.377 419.448 492.403 425.422 485.065 425.422ZM316.006 411.786H484.74V183.312H315.974V411.786H316.006Z" fill="black"/>
<path d="M468.831 389.351H331.883C328.117 389.351 325.065 386.299 325.065 382.532V199.221C325.065 195.455 328.117 192.403 331.883 192.403H468.831C472.597 192.403 475.649 195.455 475.649 199.221V382.532C475.649 386.299 472.597 389.351 468.831 389.351ZM338.734 375.714H462.013V206.039H338.701V375.714H338.734Z" fill="black"/>
<path d="M400.357 407.045C403.925 407.045 406.818 404.153 406.818 400.584C406.818 397.016 403.925 394.123 400.357 394.123C396.789 394.123 393.896 397.016 393.896 400.584C393.896 404.153 396.789 407.045 400.357 407.045Z" fill="black"/>
</svg>
