<svg xmlns="http://www.w3.org/2000/svg" data-name="Layer 2" viewBox="0 0 62 62" id="touch"><path d="M46 27a3.93 3.93 0 0 0-2.24.69A4 4 0 0 0 40 25a3.93 3.93 0 0 0-2.24.69A4 4 0 0 0 34 23a3.91 3.91 0 0 0-2 .56V14a4 4 0 0 0-4.81-3.92A4.09 4.09 0 0 0 24 14.15v23.19l-2.74-3.13a5 5 0 0 0-6.86-.61l-.7.56A2.92 2.92 0 0 0 13 38l7.13 11.5A16.35 16.35 0 0 0 34 58a16 16 0 0 0 16-16V31a4 4 0 0 0-4-4zm2 15a14 14 0 0 1-14 14 14.36 14.36 0 0 1-12.15-7.52l-7.11-11.56a.93.93 0 0 1 .21-1.2l.7-.56a3 3 0 0 1 4.11.37l4.49 5.13A1 1 0 0 0 26 40V14.15A2.12 2.12 0 0 1 27.58 12a2 2 0 0 1 1.83.55A2 2 0 0 1 30 14v20a1 1 0 0 0 2 0v-7a2 2 0 0 1 4 0v7a1 1 0 0 0 2 0v-5a2 2 0 0 1 4 0v5a1 1 0 0 0 2 0v-3a2 2 0 0 1 4 0zM28 9a1 1 0 0 0 1-1V5a1 1 0 0 0-2 0v3a1 1 0 0 0 1 1z"></path><path d="M34 13a1 1 0 0 0 1 1h3a1 1 0 0 0 0-2h-3a1 1 0 0 0-1 1zm-16 1h3a1 1 0 0 0 0-2h-3a1 1 0 0 0 0 2zm4.29-4.29a1 1 0 0 0 1.42 0 1 1 0 0 0 0-1.42l-2-2a1 1 0 0 0-1.42 1.42zM33 10a1 1 0 0 0 .71-.29l2-2a1 1 0 1 0-1.42-1.42l-2 2a1 1 0 0 0 0 1.42A1 1 0 0 0 33 10z"></path></svg>