<svg xmlns="http://www.w3.org/2000/svg" width="32" height="32" id="server"><path d="M11 1v13h10V1H11zm1 1h8v11h-8V2zm1.01 1v1H19V3h-5.99zm0 2v1H19V5h-5.99zm0 2v1H19V7h-5.99zM16 9c-.823 0-1.5.677-1.5 1.5 0 .822.677 1.5 1.5 1.5s1.5-.678 1.5-1.5c0-.823-.677-1.5-1.5-1.5zm0 1c.282 0 .5.218.5.5 0 .282-.218.5-.5.5a.493.493 0 0 1-.5-.5c0-.282.218-.5.5-.5zm-.5 5v2h-11v3h1v-2h10v2h1v-2h10v2h1v-3h-11v-2h-1zm-15 6v7H3v2H2v1h6v-1H7v-2h2.5v-7h-9zm11 0v7H14v2h-1v1h6v-1h-1v-2h2.5v-7h-9zm11 0v7H25v2h-1v1h6v-1h-1v-2h2.5v-7h-9zm-21 1h7v5h-7v-5zm11 0h7v5h-7v-5zm11 0h7v5h-7v-5zM4 28h2v2H4v-2zm11 0h2v2h-2v-2zm11 0h2v2h-2v-2z" color="#000" font-family="sans-serif" font-weight="400" overflow="visible" style="line-height:normal;text-indent:0;text-align:start;text-decoration-line:none;text-decoration-style:solid;text-decoration-color:#000;text-transform:none;block-progression:tb;white-space:normal;isolation:auto;mix-blend-mode:normal;solid-color:#000;solid-opacity:1"></path></svg>