<?xml version="1.0" standalone="no"?>
<!DOCTYPE svg PUBLIC "-//W3C//DTD SVG 20010904//EN"
 "http://www.w3.org/TR/2001/REC-SVG-20010904/DTD/svg10.dtd">
<svg version="1.0" xmlns="http://www.w3.org/2000/svg"
 width="512.000000pt" height="512.000000pt" viewBox="0 0 512.000000 512.000000"
 preserveAspectRatio="xMidYMid meet">

<g transform="translate(0.000000,512.000000) scale(0.100000,-0.100000)"
fill="#000000" stroke="none">
<path d="M2350 5110 c-206 -22 -454 -78 -635 -145 -247 -90 -542 -262 -745
-433 -173 -144 -400 -397 -400 -444 0 -48 58 -94 105 -82 15 4 52 39 91 88
199 243 485 471 772 615 211 106 504 195 740 225 159 21 444 21 598 1 605 -80
1223 -417 1612 -880 l76 -90 -133 -5 c-125 -5 -134 -6 -152 -29 -21 -25 -25
-71 -9 -101 17 -31 75 -40 268 -40 194 0 240 8 261 48 15 28 15 389 0 431 -20
56 -91 70 -134 26 -21 -21 -25 -33 -25 -89 l0 -64 -162 162 c-264 263 -519
439 -853 586 -223 99 -460 168 -695 205 -123 19 -457 28 -580 15z"/>
<path d="M2315 4285 c-25 -24 -25 -27 -25 -189 l0 -165 -42 -11 c-105 -28
-202 -66 -310 -122 l-117 -60 -100 104 c-103 107 -143 135 -183 125 -13 -4
-98 -82 -190 -175 -214 -214 -210 -192 -53 -352 l116 -117 -55 -104 c-51 -97
-101 -226 -126 -326 l-11 -43 -163 0 c-229 0 -210 25 -214 -279 l-3 -242 30
-29 29 -30 161 0 160 0 15 -57 c37 -134 104 -290 167 -390 13 -21 8 -28 -104
-141 -160 -162 -163 -140 52 -356 217 -218 197 -215 359 -54 l117 117 60 -36
c86 -51 154 -81 285 -123 l115 -38 2 -158 c2 -94 8 -168 14 -181 21 -40 53
-44 293 -41 l228 3 24 28 c23 27 24 33 24 193 0 145 2 164 16 164 39 0 238 76
340 130 l112 58 98 -105 c111 -119 146 -141 197 -120 31 14 299 280 332 331
29 44 13 74 -109 195 l-113 113 44 76 c50 89 115 252 134 335 l12 57 162 0
c149 0 164 2 189 21 l26 20 0 247 c-1 204 -3 250 -16 267 -13 18 -30 20 -186
25 l-170 5 -29 100 c-16 55 -59 160 -95 233 l-66 133 99 102 c55 56 107 114
117 129 32 49 17 73 -163 251 -213 212 -191 209 -351 52 l-116 -115 -115 59
c-94 48 -184 82 -336 127 -10 2 -13 43 -13 159 0 157 -5 186 -39 212 -12 9
-83 12 -254 13 l-238 0 -24 -25z m385 -279 c0 -78 5 -157 10 -173 13 -37 33
-47 141 -72 144 -33 262 -83 392 -167 108 -70 118 -67 248 69 l108 112 90 -90
91 -89 -109 -111 c-60 -60 -111 -120 -115 -131 -8 -27 5 -63 45 -120 60 -88
130 -250 161 -376 42 -172 36 -168 234 -168 l154 0 0 -130 0 -130 -154 0 c-85
0 -162 -3 -171 -6 -19 -8 -45 -55 -45 -82 0 -30 -48 -188 -81 -268 -17 -40
-57 -118 -90 -173 -46 -76 -59 -106 -54 -123 4 -13 56 -73 116 -133 l109 -110
-90 -90 -90 -89 -113 112 c-82 81 -121 112 -138 112 -14 0 -57 -20 -96 -44
-150 -94 -273 -146 -418 -177 -131 -29 -129 -26 -133 -219 l-3 -160 -125 0
-124 0 0 158 c-1 189 -6 200 -107 216 -118 18 -310 97 -438 180 -38 25 -81 46
-94 46 -17 0 -55 -31 -136 -110 -61 -60 -115 -110 -121 -110 -5 0 -47 38 -94
85 l-84 85 112 113 c134 136 135 141 66 248 -80 123 -146 287 -174 434 -7 33
-21 70 -33 83 -20 21 -27 22 -179 22 l-158 0 0 130 0 130 154 0 c192 0 188 -3
221 135 37 159 95 296 179 425 57 87 54 96 -76 227 l-113 113 90 90 89 90 112
-110 c132 -130 140 -133 240 -70 148 94 312 160 458 185 21 3 49 17 62 30 23
23 24 29 24 178 0 84 3 157 7 160 3 4 60 7 125 7 l118 0 0 -144z"/>
<path d="M2435 3245 c-143 -31 -262 -100 -367 -214 -193 -208 -238 -522 -112
-777 89 -181 259 -320 454 -371 88 -23 254 -22 340 1 249 67 437 259 500 510
80 318 -78 655 -375 798 -135 65 -298 84 -440 53z m285 -172 c210 -57 364
-244 385 -469 8 -87 -13 -195 -57 -284 -39 -81 -150 -194 -228 -232 -344 -169
-739 55 -767 434 -27 369 311 648 667 551z"/>
<path d="M209 3557 c-120 -62 -189 -103 -198 -119 -28 -48 13 -118 69 -118 17
0 62 16 101 36 39 19 69 29 66 22 -34 -83 -131 -402 -153 -503 -26 -118 -28
-148 -28 -330 0 -229 16 -358 71 -580 69 -277 185 -540 341 -775 349 -525 870
-901 1466 -1060 202 -54 332 -72 567 -77 l216 -6 21 28 c27 34 28 75 2 107
-19 24 -22 25 -207 31 -103 4 -235 13 -293 22 -879 134 -1602 734 -1893 1572
-74 212 -113 409 -126 636 -11 181 1 302 44 475 35 138 119 399 134 414 4 5
22 -27 40 -70 41 -96 64 -122 108 -122 41 0 83 38 83 74 0 31 -154 384 -178
408 -39 39 -60 34 -253 -65z"/>
<path d="M4823 3525 c-35 -24 -37 -63 -7 -140 41 -110 101 -359 118 -493 18
-142 21 -426 6 -552 -30 -240 -109 -499 -220 -725 -240 -488 -644 -893 -1141
-1145 -77 -39 -142 -70 -144 -68 -2 2 12 28 30 58 19 30 35 65 35 78 0 30 -52
82 -82 82 -41 0 -63 -25 -172 -195 -111 -173 -122 -203 -88 -244 19 -24 368
-181 401 -181 34 0 71 43 71 83 0 47 -15 62 -104 102 l-79 36 179 89 c432 214
784 517 1052 909 455 662 561 1431 302 2197 -16 48 -37 96 -46 106 -21 22 -81
24 -111 3z"/>
</g>
</svg>
