<svg xmlns="http://www.w3.org/2000/svg" viewBox="0 0 110 110" id="website"><g data-name="14. Website"><circle cx="55" cy="55" r="50" fill="#e7efff"></circle><circle cx="14" cy="4" r="3" fill="#00c99f"></circle><circle cx="106" cy="9" r="3" fill="#ffa100"></circle><circle cx="106" cy="100" r="3" fill="#00c99f"></circle><circle cx="12" cy="106" r="3" fill="#ff4d69"></circle><path fill="#4e6aff" d="M32,16H94a4,4,0,0,1,4,4v6a0,0,0,0,1,0,0H32a0,0,0,0,1,0,0V16A0,0,0,0,1,32,16Z"></path><path fill="#8fa2ff" d="M16,16H32a6,6,0,0,1,6,6v4a0,0,0,0,1,0,0H12a0,0,0,0,1,0,0V20A4,4,0,0,1,16,16Z"></path><path fill="#a5bced" d="M98,26V80.51A49.73,49.73,0,0,1,86.27,94H23.73A49.73,49.73,0,0,1,12,80.51V26Z"></path><circle cx="93" cy="21" r="1" fill="#fff"></circle><circle cx="87" cy="21" r="1" fill="#fff"></circle><circle cx="81" cy="21" r="1" fill="#fff"></circle><circle cx="33" cy="21" r="1" fill="#fff"></circle><rect width="26" height="26" x="18" y="32" fill="#ffa100" rx="2"></rect><rect width="42" height="8" x="50" y="32" fill="#4e6aff" rx="2"></rect><path fill="#fff" d="M91 46H51a1 1 0 010-2H91a1 1 0 010 2zM91 50H51a1 1 0 010-2H91a1 1 0 010 2zM91 54H51a1 1 0 010-2H91a1 1 0 010 2zM91 58H51a1 1 0 010-2H91a1 1 0 010 2zM43 66H19a1 1 0 010-2H43a1 1 0 010 2zM43 70H19a1 1 0 010-2H43a1 1 0 010 2zM43 74H19a1 1 0 010-2H43a1 1 0 010 2zM43 78H19a1 1 0 010-2H43a1 1 0 010 2zM43 82H19a1 1 0 010-2H43a1 1 0 010 2zM33 86H19a1 1 0 010-2H33a1 1 0 010 2z"></path><rect width="42" height="24" x="50" y="64" fill="#4e6aff" rx="2"></rect><path fill="#323fd4" d="M92,79v7a2,2,0,0,1-2,2H52a2,2,0,0,1-2-2V84l9.91-7.21a2,2,0,0,1,2.23-.07L69,81l12.7-9.07a2,2,0,0,1,2.49.13Z"></path><circle cx="69" cy="71" r="4" fill="#8fa2ff"></circle><path fill="#fff" d="M38,37H24a1,1,0,0,0-1,1v2a1,1,0,0,0,2,0V39h5V51H28a1,1,0,0,0,0,2h6a1,1,0,0,0,0-2H32V39h5v1a1,1,0,0,0,2,0V38A1,1,0,0,0,38,37Z"></path></g></svg>