<?xml version="1.0" standalone="no"?>
<!DOCTYPE svg PUBLIC "-//W3C//DTD SVG 20010904//EN"
 "http://www.w3.org/TR/2001/REC-SVG-20010904/DTD/svg10.dtd">
<svg version="1.0" xmlns="http://www.w3.org/2000/svg"
 width="772.000000pt" height="772.000000pt" viewBox="0 0 772.000000 772.000000"
 preserveAspectRatio="xMidYMid meet">
<metadata>
Created by potrace 1.14, written by Peter Selinger 2001-2017
</metadata>
<g transform="translate(0.000000,772.000000) scale(0.100000,-0.100000)"
fill="#000000" stroke="none">
<path d="M4118 7715 c-1 -2 -39 -6 -83 -9 -44 -3 -100 -9 -125 -13 -25 -3 -60
-7 -77 -7 -18 -1 -33 -5 -33 -9 0 -5 -4 -6 -8 -3 -5 3 -73 -8 -153 -25 -79
-16 -153 -32 -164 -34 -75 -14 -381 -112 -487 -156 -156 -64 -433 -200 -518
-255 -25 -15 -48 -27 -52 -26 -5 1 -8 -2 -8 -7 0 -5 -13 -14 -30 -21 -16 -7
-30 -16 -30 -21 0 -5 -5 -9 -10 -9 -9 0 -197 -125 -210 -140 -3 -3 -30 -24
-61 -47 -31 -23 -63 -48 -72 -57 -8 -9 -18 -16 -21 -16 -3 0 -14 -8 -24 -17
-10 -10 -47 -43 -83 -73 -70 -59 -297 -285 -368 -365 -92 -103 -321 -404 -321
-421 0 -3 -11 -20 -24 -37 -42 -56 -227 -382 -231 -407 0 -3 -16 -36 -34 -75
-33 -70 -54 -120 -50 -120 1 0 -7 -18 -18 -40 -53 -103 -167 -481 -209 -690
-2 -11 -6 -31 -9 -45 -3 -14 -8 -43 -11 -65 -3 -22 -8 -47 -9 -55 -2 -8 -7
-44 -11 -80 -4 -36 -8 -67 -9 -70 0 -3 -4 -11 -8 -17 -5 -8 -4 -13 3 -13 6 0
9 -4 6 -9 -20 -32 -29 -574 -12 -731 4 -41 9 -90 11 -108 1 -18 6 -54 10 -80
4 -26 9 -58 11 -72 5 -42 14 -93 24 -140 5 -25 12 -56 14 -70 6 -39 55 -228
78 -305 12 -38 23 -74 24 -80 5 -19 54 -154 84 -232 34 -85 45 -110 98 -223
19 -41 33 -75 31 -75 -2 0 7 -15 19 -33 13 -18 25 -39 26 -47 1 -9 8 -21 14
-27 7 -7 12 -16 12 -20 0 -5 22 -45 50 -89 27 -44 50 -83 50 -86 0 -2 29 -48
65 -100 36 -52 65 -99 65 -104 0 -5 3 -9 8 -9 4 0 18 -17 32 -38 14 -20 29
-42 35 -49 5 -7 15 -18 20 -25 139 -176 181 -223 330 -373 126 -127 218 -212
281 -261 20 -16 51 -41 68 -55 102 -84 297 -219 455 -312 117 -70 494 -257
517 -257 3 0 60 -20 127 -44 143 -52 304 -100 372 -111 11 -2 31 -7 45 -13 14
-5 27 -10 30 -10 6 0 103 -15 110 -17 40 -10 183 -33 255 -41 144 -15 230 -19
425 -19 198 0 354 8 416 19 10 2 46 7 78 11 79 9 249 40 323 59 32 9 70 18 84
20 13 2 24 5 24 6 0 1 9 3 21 5 39 8 325 101 379 124 195 83 283 123 348 157
42 23 77 40 77 37 0 -4 8 1 18 9 9 8 42 29 72 45 102 55 414 263 440 293 3 3
37 30 75 60 94 74 154 128 288 258 42 41 77 79 77 83 0 4 6 14 14 22 26 26 65
118 82 194 55 249 -72 504 -306 611 -90 41 -138 53 -223 53 -170 1 -297 -54
-433 -189 -108 -106 -350 -302 -373 -302 -6 0 -11 -4 -11 -8 0 -4 -26 -23 -57
-42 -32 -19 -59 -38 -61 -42 -2 -5 -10 -8 -17 -8 -8 0 -20 -6 -27 -13 -7 -6
-31 -21 -53 -32 -22 -11 -42 -22 -45 -25 -8 -9 -201 -97 -280 -128 -101 -39
-289 -99 -340 -108 -8 -1 -51 -10 -95 -19 -44 -9 -93 -18 -110 -20 -16 -2 -48
-6 -70 -10 -214 -31 -592 -22 -779 20 -12 3 -33 7 -47 9 -86 14 -354 95 -436
132 -17 8 -34 14 -38 14 -14 0 -255 119 -319 158 -37 23 -70 42 -72 42 -7 0
-168 113 -234 164 -133 103 -347 304 -420 395 -14 17 -38 45 -53 63 -16 18
-50 62 -75 98 -26 36 -49 67 -52 70 -12 11 -130 199 -130 208 0 5 -7 15 -15
22 -8 7 -15 21 -15 30 0 10 -4 20 -9 22 -6 2 -61 111 -101 203 -35 79 -108
282 -116 320 -1 6 -13 55 -27 110 -14 55 -28 120 -32 145 -4 25 -9 54 -12 65
-2 11 -6 36 -9 55 -2 19 -6 49 -9 67 -22 146 -22 512 -1 643 3 14 7 48 11 75
3 28 8 59 10 70 3 11 7 32 10 48 12 66 17 86 36 162 21 85 64 227 78 260 5 11
20 49 34 85 14 36 37 91 51 122 15 32 26 61 25 64 0 4 3 10 8 13 4 3 24 38 43
76 19 39 38 72 41 75 3 3 14 21 24 40 10 19 21 37 24 40 10 8 31 44 37 63 4 9
10 17 15 17 5 0 9 5 9 10 0 6 5 16 10 23 6 7 37 47 70 90 155 205 358 408 555
557 22 16 45 34 51 39 66 55 401 251 429 251 6 0 16 5 22 11 24 24 370 151
448 165 6 1 13 3 18 4 8 3 9 3 52 13 97 23 265 48 275 42 6 -4 10 -3 10 2 0
23 511 22 615 0 11 -3 43 -8 70 -11 28 -4 68 -11 90 -16 22 -5 51 -11 65 -14
32 -5 217 -56 250 -68 234 -85 389 -158 570 -269 30 -18 57 -37 58 -41 2 -4 8
-8 13 -8 25 0 289 -210 394 -313 68 -67 138 -127 149 -127 5 0 20 -8 34 -18
27 -19 111 -48 167 -58 72 -13 196 -3 266 21 45 16 138 64 155 81 7 6 25 21
40 35 48 40 101 111 130 174 15 33 29 65 30 70 1 6 7 30 13 55 25 109 1 263
-60 380 -21 40 -195 224 -289 305 -125 108 -372 295 -390 295 -6 0 -13 7 -16
15 -4 8 -12 15 -19 15 -8 0 -20 6 -27 13 -25 23 -247 153 -348 203 -203 101
-501 220 -620 250 -8 2 -58 15 -110 29 -105 28 -96 26 -232 54 -100 21 -106
22 -248 40 -47 6 -103 14 -125 17 -43 7 -561 15 -567 9z"/>
<path d="M4248 6175 c-2 -2 -41 -6 -88 -9 -47 -4 -94 -9 -105 -11 -11 -3 -36
-7 -55 -10 -19 -2 -46 -7 -60 -10 -14 -3 -34 -7 -45 -9 -146 -29 -385 -114
-512 -183 -35 -18 -63 -30 -63 -26 0 5 -4 3 -8 -2 -4 -6 -47 -34 -97 -64 -167
-100 -309 -214 -461 -367 -81 -82 -183 -202 -224 -263 -8 -13 -25 -35 -37 -49
-13 -15 -23 -33 -23 -39 0 -7 -4 -13 -9 -13 -5 0 -11 -8 -15 -17 -3 -10 -24
-47 -46 -83 -103 -169 -219 -461 -254 -641 -2 -13 -9 -44 -14 -69 -6 -25 -13
-67 -16 -95 -4 -27 -9 -63 -12 -80 -2 -16 -7 -50 -9 -75 -5 -52 -6 -340 -1
-385 2 -16 7 -59 11 -95 5 -36 9 -72 10 -80 4 -31 37 -196 42 -210 3 -8 7 -19
8 -25 18 -77 49 -167 98 -290 24 -62 108 -236 117 -245 3 -3 16 -25 29 -50 14
-25 27 -47 30 -50 3 -3 27 -37 53 -76 25 -39 67 -96 92 -128 26 -31 55 -66 64
-78 43 -53 312 -313 312 -301 0 4 19 -11 48 -38 23 -21 152 -108 234 -157 138
-83 353 -176 503 -219 214 -60 404 -87 620 -87 104 0 257 10 297 18 21 5 49
10 120 21 15 2 46 9 70 16 24 6 48 12 53 13 70 16 246 74 259 87 6 5 16 9 24
9 20 0 302 141 302 152 0 4 4 8 10 8 11 0 119 67 138 87 7 7 17 13 21 13 4 0
16 8 27 18 10 10 28 24 40 32 103 73 264 234 294 295 20 41 24 65 24 135 0 47
-2 92 -5 100 -21 60 -46 98 -93 144 -43 42 -67 57 -122 74 -129 41 -238 13
-348 -89 -32 -30 -68 -62 -80 -72 -11 -10 -31 -27 -43 -37 -158 -136 -388
-253 -613 -313 -85 -23 -121 -30 -225 -43 -53 -6 -268 -6 -320 1 -48 7 -117
19 -180 31 -61 12 -233 73 -310 110 -134 64 -297 170 -380 247 -146 137 -232
235 -310 357 -39 60 -125 214 -125 225 0 3 -9 25 -20 49 -115 269 -150 617
-94 932 8 47 42 176 58 221 8 23 12 44 9 47 -4 3 -2 6 4 6 6 0 14 11 17 25 9
35 93 210 123 254 13 20 29 44 36 55 83 126 231 290 332 367 17 13 35 29 40
35 25 28 209 141 300 184 110 52 292 114 365 125 8 1 35 6 60 10 128 20 254
24 390 11 63 -6 86 -9 140 -20 315 -62 583 -209 849 -466 90 -87 248 -110 367
-54 56 27 130 102 155 159 32 73 35 192 6 263 -30 74 -160 206 -322 327 -33
25 -64 48 -70 53 -31 23 -131 86 -210 130 -197 110 -448 202 -650 237 -16 3
-37 8 -45 10 -8 2 -37 7 -65 10 -27 3 -69 8 -91 11 -42 5 -322 13 -326 9z"/>
</g>
</svg>
