<?xml version="1.0" standalone="no"?>
<!DOCTYPE svg PUBLIC "-//W3C//DTD SVG 20010904//EN"
 "http://www.w3.org/TR/2001/REC-SVG-20010904/DTD/svg10.dtd">
<svg version="1.0" xmlns="http://www.w3.org/2000/svg"
 width="360.000000pt" height="360.000000pt" viewBox="0 0 360.000000 360.000000"
 preserveAspectRatio="xMidYMid meet">
<metadata>
Created by potrace 1.14, written by Peter Selinger 2001-2017
</metadata>
<g transform="translate(0.000000,360.000000) scale(0.100000,-0.100000)"
fill="#000000" stroke="none">
<path d="M1596 3589 c-319 -37 -657 -176 -905 -372 -317 -252 -540 -594 -635
-975 -44 -178 -51 -238 -50 -452 0 -183 3 -219 28 -335 34 -163 83 -310 146
-439 232 -478 668 -833 1178 -960 178 -44 238 -51 452 -50 183 0 219 3 335 28
163 34 310 83 439 146 478 232 833 668 960 1178 44 178 51 238 50 452 0 183
-3 219 -28 335 -48 231 -120 415 -231 594 -295 477 -784 787 -1340 851 -102
11 -297 11 -399 -1z m673 -1654 l440 -770 -886 -3 c-488 -1 -888 0 -890 2 -2
2 195 353 439 779 244 427 446 773 450 769 4 -4 205 -353 447 -777z"/>
</g>
</svg>
